<svg id="chart-pie" xmlns="http://www.w3.org/2000/svg" width="40" height="40" viewBox="0 0 40 40">
  <path id="Path_409" data-name="Path 409" d="M0,0H40V40H0Z" fill="none"/>
  <path id="Path_410" data-name="Path 410" d="M14.732,3.2A15.112,15.112,0,1,0,32.867,21.339a1.679,1.679,0,0,0-1.679-1.679H19.77A3.358,3.358,0,0,1,16.411,16.3V4.547A1.511,1.511,0,0,0,14.732,3.2" transform="translate(1.913 2.015)" fill="none" stroke="#afc2f2" stroke-linecap="round" stroke-linejoin="round" stroke-width="2"/>
  <path id="Path_411" data-name="Path 411" d="M15,3.5a14.679,14.679,0,0,1,8.971,8.971h-7.34A1.631,1.631,0,0,1,15,10.84V3.5" transform="translate(10.321 2.208)" fill="none" stroke="#afc2f2" stroke-linecap="round" stroke-linejoin="round" stroke-width="2"/>
</svg>
