<svg xmlns="http://www.w3.org/2000/svg" width="25.772" height="24" viewBox="0 0 25.772 24">
  <g id="link" transform="translate(0 -16.6)">
    <g id="Group_25" data-name="Group 25" transform="translate(0 16.6)">
      <path id="Path_38" data-name="Path 38" d="M14.129,189.2a.745.745,0,0,0,0,1.057,3.111,3.111,0,0,1,0,4.4l-6.367,6.367a3.111,3.111,0,0,1-4.4,0l-.958-.958a3.111,3.111,0,0,1,0-4.4L8.775,189.3a.748.748,0,0,0-1.057-1.057l-6.367,6.367a4.6,4.6,0,0,0,0,6.511l.958.958a4.611,4.611,0,0,0,6.511,0l6.367-6.367a4.611,4.611,0,0,0,0-6.511A.745.745,0,0,0,14.129,189.2Z" transform="translate(0 -179.426)" fill="#f5fbff"/>
      <path id="Path_39" data-name="Path 39" d="M199.481,18.9l-.958-.958a4.611,4.611,0,0,0-6.511,0l-6.367,6.367a4.611,4.611,0,0,0,0,6.511.748.748,0,0,0,1.057-1.057,3.111,3.111,0,0,1,0-4.4L193.07,19a3.111,3.111,0,0,1,4.4,0l.958.958a3.111,3.111,0,0,1,0,4.4l-6.367,6.367A.75.75,0,0,0,192.582,32a.729.729,0,0,0,.526-.221l6.367-6.367a4.6,4.6,0,0,0,.006-6.511Z" transform="translate(-175.054 -16.6)" fill="#f5fbff"/>
    </g>
  </g>
</svg>
