<svg xmlns="http://www.w3.org/2000/svg" width="34.674" height="43.821" viewBox="0 0 34.674 43.821">
  <path id="notification" d="M87.393,34.873a6.809,6.809,0,0,1-2.069-2.817c-1.783-3.773-2.157-9.088-2.157-12.882,0-.017,0-.033,0-.049A12.434,12.434,0,0,0,75.847,7.848V4.882A4.883,4.883,0,0,0,70.973,0h-.4A4.883,4.883,0,0,0,65.7,4.882V7.848a12.434,12.434,0,0,0-7.32,11.326c0,3.794-.374,9.109-2.157,12.882a6.808,6.808,0,0,1-2.069,2.817,1.248,1.248,0,0,0-.686,1.42,1.306,1.306,0,0,0,1.287,1h9.41a6.61,6.61,0,0,0,13.219,0h9.41a1.306,1.306,0,0,0,1.287-1A1.248,1.248,0,0,0,87.393,34.873ZM68.264,4.882a2.31,2.31,0,0,1,2.306-2.31h.4a2.31,2.31,0,0,1,2.306,2.31V7.014a12.434,12.434,0,0,0-5.016,0V4.882Zm2.508,36.368A4.051,4.051,0,0,1,66.73,37.3h8.083A4.051,4.051,0,0,1,70.771,41.249Zm5.17-6.525H57.678a13.458,13.458,0,0,0,.673-1.181c1.721-3.393,2.593-8.228,2.593-14.369a9.827,9.827,0,1,1,19.655,0c0,.016,0,.032,0,.047,0,6.117.877,10.934,2.593,14.318a13.47,13.47,0,0,0,.673,1.181Z" transform="translate(-53.434 0)" fill="#272d3b"/>
</svg>
