<svg id="settings" xmlns="http://www.w3.org/2000/svg" width="40" height="40" viewBox="0 0 40 40">
  <path id="Path_414" data-name="Path 414" d="M0,0H40V40H0Z" fill="none"/>
  <path id="Path_415" data-name="Path 415" d="M15.31,5.213a2.9,2.9,0,0,1,5.63,0A2.9,2.9,0,0,0,25.264,7a2.9,2.9,0,0,1,3.983,3.983,2.9,2.9,0,0,0,1.79,4.322,2.9,2.9,0,0,1,0,5.63,2.9,2.9,0,0,0-1.791,4.324,2.9,2.9,0,0,1-3.983,3.983,2.9,2.9,0,0,0-4.322,1.79,2.9,2.9,0,0,1-5.63,0,2.9,2.9,0,0,0-4.324-1.791A2.9,2.9,0,0,1,7,25.262a2.9,2.9,0,0,0-1.79-4.322,2.9,2.9,0,0,1,0-5.63A2.9,2.9,0,0,0,7,10.986,2.9,2.9,0,0,1,10.988,7a2.9,2.9,0,0,0,4.322-1.79Z" transform="translate(1.875 1.875)" fill="none" stroke="#afc2f2" stroke-linecap="round" stroke-linejoin="round" stroke-width="2"/>
  <circle id="Ellipse_214" data-name="Ellipse 214" cx="4.5" cy="4.5" r="4.5" transform="translate(15.5 15.5)" fill="none" stroke="#afc2f2" stroke-linecap="round" stroke-linejoin="round" stroke-width="2"/>
</svg>
